<?xml version="1.0" standalone="no"?>
<!DOCTYPE svg PUBLIC "-//W3C//DTD SVG 20010904//EN"
 "http://www.w3.org/TR/2001/REC-SVG-20010904/DTD/svg10.dtd">
<svg version="1.0" xmlns="http://www.w3.org/2000/svg"
 width="952.000000pt" height="952.000000pt" viewBox="0 0 952.000000 952.000000"
 preserveAspectRatio="xMidYMid meet">
<metadata>
Created by potrace 1.14, written by Peter Selinger 2001-2017
</metadata>
<g transform="translate(0.000000,952.000000) scale(0.100000,-0.100000)"
fill="#000000" stroke="none">
<path d="M15 7803 c4 -10 23 -61 42 -113 19 -52 38 -104 43 -115 16 -40 39
-103 85 -230 51 -142 63 -171 76 -197 5 -10 9 -25 9 -33 0 -8 4 -23 10 -33 9
-15 88 -222 94 -247 5 -17 17 -48 32 -83 8 -18 14 -37 14 -43 0 -6 6 -25 14
-42 13 -30 26 -66 77 -204 12 -32 25 -67 29 -78 13 -31 43 -115 110 -300 34
-93 66 -179 71 -190 5 -11 31 -83 59 -160 28 -77 55 -149 60 -160 5 -11 23
-60 41 -110 17 -49 38 -106 45 -125 28 -76 73 -199 99 -270 15 -41 33 -89 41
-107 8 -17 14 -34 14 -37 0 -5 44 -125 180 -491 94 -252 112 -300 114 -310 1
-5 10 -27 19 -49 9 -21 17 -41 17 -44 0 -3 32 -91 71 -196 39 -105 88 -240
110 -301 22 -60 45 -119 49 -130 5 -11 16 -38 23 -60 27 -78 68 -190 77 -210
4 -11 18 -47 30 -80 12 -33 26 -69 30 -80 5 -11 21 -54 35 -95 15 -41 48 -133
75 -205 27 -71 71 -193 100 -270 28 -77 54 -147 57 -155 3 -8 7 -18 8 -22 2
-5 4 -10 5 -13 1 -3 3 -9 4 -13 0 -4 9 -26 18 -47 9 -22 52 -136 95 -253 l78
-212 215 2 214 3 29 75 c15 41 29 80 31 85 3 11 10 31 29 80 7 17 12 32 13 35
0 3 4 12 7 20 9 19 131 353 164 445 13 39 28 79 33 90 12 28 71 188 74 200 2
6 7 19 11 30 17 43 54 143 80 215 15 41 30 84 35 95 5 11 30 79 56 150 25 72
52 144 59 160 15 34 115 305 119 320 2 10 42 118 53 145 3 8 7 20 8 25 2 6 14
40 28 75 39 102 40 104 43 115 1 6 21 60 44 120 23 61 52 139 65 175 12 36 78
214 145 395 68 182 129 348 137 370 8 22 20 54 29 72 8 17 17 45 20 62 4 17
11 34 15 37 5 3 9 12 9 21 0 8 6 29 14 46 7 18 26 66 40 107 15 41 31 84 36
95 4 11 20 54 35 95 71 196 86 236 94 255 5 11 60 157 121 325 134 366 230
626 316 856 35 93 64 175 64 181 0 6 7 24 14 40 14 26 25 54 32 78 4 16 64
178 73 200 5 11 14 36 21 55 7 19 16 44 21 55 14 31 39 106 39 116 0 6 -98 8
-226 7 l-227 -3 -64 -175 c-35 -96 -68 -184 -73 -195 -11 -25 -130 -347 -133
-360 -3 -11 -34 -98 -47 -130 -4 -11 -18 -47 -30 -80 -12 -33 -26 -68 -31 -77
-5 -10 -9 -23 -9 -29 0 -6 -6 -25 -14 -42 -18 -42 -50 -131 -49 -137 1 -3 -4
-14 -10 -25 -6 -11 -12 -23 -13 -27 -1 -5 -2 -9 -4 -10 -1 -2 -3 -10 -5 -18
-5 -20 -393 -1069 -405 -1095 -5 -11 -12 -31 -16 -44 -3 -13 -13 -40 -22 -60
-9 -20 -17 -43 -19 -51 -1 -8 -21 -62 -43 -120 -23 -58 -43 -109 -44 -115 -3
-10 -10 -30 -29 -80 -7 -16 -12 -32 -13 -35 0 -3 -4 -14 -9 -25 -23 -55 -47
-122 -50 -135 -3 -16 -31 -91 -46 -125 -5 -11 -18 -47 -29 -80 -12 -33 -25
-69 -30 -80 -5 -11 -50 -132 -100 -270 -50 -137 -93 -257 -97 -265 -3 -8 -7
-17 -7 -20 -2 -7 -106 -290 -116 -315 -13 -30 -111 -296 -120 -325 -5 -14 -24
-69 -43 -122 -20 -54 -33 -98 -30 -98 3 0 1 -6 -4 -12 -9 -11 -34 -78 -38 -98
-2 -12 -17 -57 -25 -75 -11 -26 -91 -272 -94 -288 -1 -7 -4 -16 -8 -22 -3 -5
-9 -26 -13 -45 -4 -19 -10 -39 -14 -45 -3 -5 -6 -12 -7 -15 -3 -17 -17 -67
-21 -80 -3 -8 -7 -20 -8 -26 -9 -39 -37 -126 -40 -122 -2 2 -6 15 -9 28 -3 14
-12 48 -20 75 -8 28 -20 68 -26 90 -23 79 -122 390 -130 410 -9 19 -50 140
-55 160 -1 6 -5 17 -8 25 -4 8 -23 62 -43 120 -37 110 -168 467 -186 510 -6
14 -12 30 -14 35 -2 9 -82 229 -124 340 -10 28 -42 113 -70 190 -28 77 -63
169 -77 205 -14 36 -32 85 -40 110 -8 25 -20 59 -27 75 -7 17 -18 44 -24 60
-6 17 -33 91 -61 165 -56 154 -99 271 -177 485 -31 83 -60 161 -66 175 -5 14
-21 57 -35 95 -13 39 -28 79 -33 90 -5 11 -35 90 -66 175 -101 277 -103 283
-185 500 -34 91 -62 170 -64 175 -3 13 -15 45 -26 70 -5 11 -34 90 -65 175
-31 85 -70 191 -86 235 -45 122 -92 248 -138 375 -23 63 -45 124 -50 135 -4
11 -18 47 -30 80 -12 33 -26 69 -30 80 -38 97 -50 130 -50 141 0 11 -42 14
-231 14 -216 0 -231 -1 -224 -17z"/>
<path d="M5830 4756 l0 -3066 215 0 215 0 1 33 c0 17 1 587 1 1265 l1 1232 21
0 c11 1 296 3 631 5 336 2 626 6 645 9 19 3 67 8 105 10 39 3 84 7 100 10 17
3 50 8 75 11 46 7 71 12 80 15 3 1 9 2 14 1 5 -1 41 5 80 15 39 9 83 18 98 20
40 7 247 69 291 87 20 9 37 13 37 10 0 -3 8 1 18 10 9 8 26 17 37 19 36 6 228
109 330 176 106 71 289 244 362 342 57 76 113 171 157 265 37 77 101 255 110
306 2 13 5 24 6 24 1 0 3 9 5 20 2 11 6 31 10 45 6 27 13 67 19 115 2 17 8 59
13 95 16 124 9 509 -11 615 -2 11 -7 40 -11 65 -3 25 -18 88 -32 140 -13 52
-26 100 -27 105 -1 6 -9 26 -18 46 -9 20 -19 47 -23 60 -22 69 -137 264 -199
336 -167 194 -357 326 -616 428 -95 37 -232 82 -280 91 -14 3 -43 10 -65 16
-22 5 -51 12 -65 14 -14 3 -36 7 -50 9 -56 11 -150 26 -190 31 -71 7 -149 16
-185 21 -22 3 -460 7 -972 10 l-933 4 0 -3065z m1810 2670 c14 -3 52 -7 83 -8
31 -2 57 -5 57 -8 0 -3 12 -5 28 -6 67 -1 344 -57 402 -81 8 -3 17 -7 20 -8
65 -16 241 -94 311 -136 95 -58 249 -185 249 -206 0 -5 9 -14 20 -21 11 -7 20
-19 20 -26 0 -8 4 -16 8 -18 13 -5 66 -88 100 -156 32 -63 86 -215 96 -269 2
-15 7 -37 9 -48 6 -26 17 -104 25 -185 9 -77 8 -263 -2 -375 -7 -82 -9 -100
-27 -195 -16 -88 -18 -95 -34 -139 -8 -23 -15 -45 -16 -49 -12 -54 -78 -192
-125 -263 -64 -96 -219 -253 -314 -316 -76 -51 -236 -132 -290 -148 -3 -1 -42
-13 -87 -28 -46 -15 -93 -29 -105 -32 -128 -29 -262 -55 -303 -60 -27 -2 -59
-6 -70 -9 -19 -3 -52 -7 -215 -22 -71 -7 -1188 -13 -1206 -7 -8 3 -11 380 -11
1418 l0 1413 676 -3 c372 -2 687 -6 701 -9z"/>
</g>
</svg>
