<?xml version="1.0" encoding="UTF-8"?><svg id="a" xmlns="http://www.w3.org/2000/svg" width="627.07" height="848.415" viewBox="0 0 627.07 848.415"><defs><style>.c,.d,.e,.f{fill:#fff;}.g,.h{fill:#231f20;}.d,.e,.i,.h,.f,.j,.k,.l{stroke-miterlimit:10;}.d,.e,.h,.j,.k,.l{stroke-width:2px;}.d,.i,.h,.f,.j{stroke:#231f20;}.e{stroke:#010101;}.i{stroke-dasharray:0 32;stroke-width:3px;}.i,.j,.k,.l{fill:none;}.k,.l{stroke:#ef3e42;}.l{stroke-dasharray:0 0 5.764 5.764;}</style></defs><polygon class="d" points="29.132 552.839 8.238 551.827 36.234 463.672 89.274 428.745 98.621 452.051 55.708 480.663 29.132 552.839"/><polygon class="d" points="211.21 276.993 238.804 278.329 215.815 357.229 171.894 424.998 157.797 389.844 192.264 344.727 211.21 276.993"/><path class="d" d="M69.229,329.441c-16.044,9.619-23.05,27.425-15.648,39.77l26.803,44.707,58.1-34.833-26.803-44.707c-7.402-12.345-26.408-14.556-42.452-4.937Z"/><circle class="f" cx="79.039" cy="356.485" r="8.499"/><circle class="f" cx="99.039" cy="344.485" r="8.499"/><path class="d" d="M238.727,508.295l-92.224,55.292-66.299-102.252c-11.742-19.585-16.682-37.308,2.903-49.05l52.654-31.568c19.585-11.742,44.981-5.384,56.723,14.201l46.243,113.377Z"/><line class="d" x1="69.229" y1="329.441" x2="58.679" y2="311.844"/><circle class="h" cx="58.539" cy="311.985" r="5.499"/><g id="b"><g><path d="M238.07,230.126c1.783,.298,3.355,.388,4.654,1.03,2.705,1.336,4.545,3.63,5.391,6.602,3.635,12.76,3.645,25.494-.397,38.164-5.865,18.381-28.749,25.273-43.382,14.982-8.254-5.805-14.545-13.194-19.491-21.894-2.624-4.615-3.859-9.54-4.065-14.787-.186-4.744,3.008-7.314,7.551-6.112,.442,.117,1.032-.06,1.478-.264,6.522-2.992,9.958-8.601,12.541-14.91,.14-.342,.089-.79,.04-1.177-.4-3.108,.92-5.16,4.008-6.149,2.56-.82,5.067-.917,7.416,.245,.56,.277,1.236,.177,1.696-.247,2.476-2.283,4.621-2.37,8.585-.491,.466,.221,1.005,.19,1.457-.059,4.505-2.485,8.846-.791,11.424,4.233,.221,.431,.617,.756,1.095,.836Zm2.474,15.051c.544,4.177,.874,8.389,1.102,12.597,.074,1.375,.408,2.174,1.751,2.491,.323,.076,.728,.2,.902,.442,.491,.68,1.356,1.549,1.213,2.132-.318,1.292-1.442,1.094-2.493,.623-6.186-2.777-12.594-4.798-19.424-4.93-2.621-.051-5.264,.41-7.877,.777-1.168,.164-2.411,.405-2.548-1.039-.056-.593,1.114-1.314,1.753-1.95,.129-.128,.376-.145,.574-.194,3.61-.894,3.807-.927,3.162-4.695-1.089-6.353-2.257-12.707-3.776-18.968-1.002-4.132-4.083-5.353-7.855-3.796-1.479,.611-1.895,1.529-1.469,3.048,1.779,6.346,3.489,12.71,5.261,19.058,1.003,3.593,1.441,7.205,.542,10.877-.866,3.535-2.85,6.262-5.985,8.161-1.407,.852-2.528,.888-3.764-.433-5.25-5.609-10.726-11.026-14.463-17.856-.801-1.464-1.833-.82-2.414-.046-.552,.735-.843,1.839-.848,2.783-.032,5.76,1.97,10.901,4.98,15.722,4.964,7.952,10.957,14.886,19.212,19.607,.288,.165,.604,.283,1.293,.6-.088-1.195-.347-2.194-.163-3.103,.127-.623,.752-1.163,1.375-1.229,.445-.048,1.24,.326,1.461,.878,.316,.789,.38,1.748,.303,2.613-.169,1.912,.714,2.698,2.518,2.844,.835,.068,1.666,.189,2.559,.327,.979,.151,1.839-.666,1.749-1.652-.13-1.423-.248-2.734-.205-4.04,.003-.094,.019-.187,.045-.279,.348-1.231,2.198-1.404,2.743-.246,.039,.083,.068,.168,.084,.255,.25,1.334,.32,2.702,.398,4.167,.049,.919,.896,1.589,1.801,1.424l1.321-.241c.766-.14,1.303-.839,1.249-1.616-.09-1.288-.175-2.535-.287-3.779-.098-1.092-.1-2.199,1.274-2.338,1.501-.151,1.713,1.025,1.802,2.177,.056,.722,.109,1.444,.164,2.211,.077,1.062,1.198,1.735,2.165,1.289,3.056-1.408,5.649-3.255,7.812-5.731,4.703-5.384,6.762-11.874,7.523-18.821,1.008-9.194,.989-18.337-2.117-27.219-.811-2.318-2.429-3.92-4.275-4.394-1.056-.271-2.026,.709-1.825,1.78,.618,3.281,1.275,6.482,1.696,9.715Zm-6.292-13.545c-.462-1.236-1.244-2.425-2.128-3.413-1.151-1.287-2.7-1.485-4.277-.694-1.037,.52-1.443,1.23-.954,2.479,3.126,7.97,4.495,16.327,5.236,24.802,.111,1.272,.45,1.95,1.794,2.184,.865,.15,1.715,.384,2.597,.643,1.006,.295,2.007-.5,1.951-1.548-.453-8.429-1.288-16.615-4.22-24.454Zm-7.009,24.03c.926,.075,1.704-.688,1.65-1.615-.067-1.153-.136-2.292-.283-3.422-.94-7.217-2.325-14.339-5.2-21.068-.429-1.004-1.44-2.037-2.432-2.438-.833-.337-2.294-.088-2.985,.49-.562,.47-.767,1.936-.494,2.747,2.632,7.841,3.879,15.924,4.494,24.132,.015,.199,.078,.394,.154,.76l5.096,.413Zm-25.013-14.882c-2.608,4.031-6.13,7.089-10.472,9.534-.797,.449-1.003,1.508-.466,2.248l2.755,3.798c.442,.61,1.274,.827,1.934,.463,4.553-2.509,7.418-6.294,9.44-10.813,.29-.649,.369-1.755,.192-2.443-.203-.791-.413-1.579-.627-2.367-.347-1.279-2.037-1.532-2.757-.42Zm3.187,11.412c-.613,.837-1.221,1.678-1.813,2.531-.235,.339-.412,.901-.303,1.267,.597,1.994,1.227,3.978,1.866,5.972,.438,1.367,2.394,1.449,2.878,.098,.949-2.653,.828-6.317,.096-9.333-.307-1.262-1.956-1.582-2.724-.535Zm-4.271,7.31c-.303-.97-1.452-1.38-2.3-.82l-.359,.237c-.788,.52-.921,1.623-.278,2.315l.034,.036,2.927-1.697-.022-.072Z"/><path class="c" d="M238.514,233.65c.704,3.921,1.533,7.703,2.031,11.527,.544,4.177,.874,8.389,1.102,12.597,.074,1.375,.408,2.174,1.751,2.491,.323,.076,.728,.2,.902,.442,.491,.68,1.356,1.549,1.213,2.132-.318,1.292-1.442,1.094-2.493,.623-6.186-2.777-12.594-4.798-19.424-4.93-2.621-.051-5.264,.41-7.877,.777-1.168,.164-2.411,.405-2.548-1.039-.056-.593,1.114-1.314,1.753-1.95,.129-.128,.376-.145,.574-.194,3.61-.894,3.807-.927,3.162-4.695-1.089-6.353-2.257-12.707-3.776-18.968-1.002-4.132-4.083-5.353-7.855-3.796-1.479,.611-1.895,1.529-1.469,3.048,1.779,6.346,3.489,12.71,5.261,19.058,1.003,3.593,1.441,7.205,.542,10.877-.866,3.535-2.85,6.262-5.985,8.161-1.407,.852-2.528,.888-3.764-.433-5.25-5.609-10.726-11.026-14.463-17.856-.801-1.464-1.833-.82-2.414-.046-.552,.735-.843,1.839-.848,2.783-.032,5.76,1.97,10.901,4.98,15.722,4.964,7.952,10.957,14.886,19.212,19.607,.288,.165,.604,.283,1.293,.6-.088-1.195-.347-2.194-.163-3.103,.127-.623,.784-1.367,1.375-1.577,.323-.115,1.24,.673,1.461,1.226,.316,.789,.38,1.748,.303,2.613-.169,1.912,.714,2.698,2.518,2.844,1.398,.114,2.784,.378,4.474,.617-.162-2.217-.434-4.105-.371-5.982,.024-.723,.809-1.421,1.247-2.13,.565,.615,1.495,1.162,1.625,1.859,.346,1.846,.347,3.757,.504,5.9l4.364-.797c-.131-1.785-.233-3.469-.384-5.149-.098-1.092-.1-2.199,1.274-2.338,1.501-.151,1.713,1.025,1.802,2.177,.104,1.349,.199,2.698,.319,4.339,3.946-1.491,7.2-3.568,9.823-6.57,4.703-5.384,6.762-11.874,7.523-18.821,1.008-9.194,.989-18.337-2.117-27.219-1.117-3.194-3.768-5.028-6.434-4.426Z"/><path class="c" d="M238.579,258.232c-.435-9.186-1.148-18.097-4.328-26.6-.462-1.236-1.244-2.425-2.128-3.413-1.151-1.287-2.7-1.485-4.277-.694-1.037,.52-1.443,1.23-.954,2.479,3.126,7.97,4.495,16.327,5.236,24.802,.111,1.272,.45,1.95,1.794,2.184,1.513,.263,2.981,.782,4.656,1.242Z"/><path class="c" d="M222.147,255.248l6.856,.556c-.129-1.756-.172-3.48-.394-5.18-.94-7.217-2.325-14.339-5.2-21.068-.429-1.004-1.44-2.037-2.432-2.438-.833-.337-2.294-.088-2.985,.49-.562,.47-.767,1.936-.494,2.747,2.632,7.841,3.879,15.924,4.494,24.132,.015,.199,.078,.394,.154,.76Z"/><path class="c" d="M204,237.595c-2.926,6.175-7.589,10.381-13.751,13.527l4.567,6.297c5.445-2.582,8.663-6.836,10.859-11.99,.168-.395,.174-.934,.067-1.359-.546-2.167-1.154-4.318-1.741-6.475Z"/><path class="c" d="M207.15,249.834c-1.185,1.621-2.398,3.232-3.545,4.888-.235,.339-.412,.901-.303,1.267,.885,2.956,1.844,5.89,2.793,8.87,3.593-2.557,3.054-10.799,1.055-15.025Z"/><path class="c" d="M203.181,266.015c-.854-2.733-1.708-5.466-2.641-8.452l-3.559,2.349,5.85,6.303,.35-.199Z"/></g></g><line class="d" x1="104.075" y1="332.583" x2="88.875" y2="334.706"/><g><polygon class="e" points="30.069 556.339 4.336 555.101 0 564.458 33.043 566.072 30.069 556.339"/><g><rect class="e" x="4.705" y="564.955" width="6.066" height="10.762" transform="translate(-12.166 1140.378) rotate(-177.223)"/><rect class="e" x="13.779" y="565.396" width="6.066" height="10.762" transform="translate(5.951 1141.697) rotate(-177.223)"/><rect class="e" x="22.998" y="565.843" width="6.066" height="10.762" transform="translate(24.358 1143.038) rotate(-177.223)"/></g></g><polygon class="d" points="189.29 669.802 169.644 665.76 165.813 608.696 146.699 564.064 190.693 537.688 199.321 598.026 189.29 669.802"/><path class="d" d="M204.877,693.719l-41.844-8.691,2.671-12.861c.448-2.155,2.558-3.54,4.713-3.092l23.893,4.962c7.759,1.611,12.742,9.207,11.131,16.966l-.564,2.715Z"/><polygon class="d" points="246.395 635.565 226.749 631.523 222.918 574.46 195.587 534.753 238.662 508.929 256.426 563.79 246.395 635.565"/><path class="d" d="M261.982,659.482l-41.844-8.691,2.671-12.861c.448-2.155,2.558-3.54,4.713-3.092l23.893,4.962c7.759,1.611,12.742,9.207,11.131,16.966l-.564,2.715Z"/><line class="d" x1="64.991" y1="357.182" x2="74.026" y2="344.775"/><g><g><g><path class="k" d="M297.173,174.697s1.511,.305,3.449,1.962"/><path class="l" d="M304.223,181.123c.442,.765,.875,1.619,1.288,2.573,.872,2.015,1.287,3.905,1.438,5.57"/><path class="k" d="M306.963,192.153c-.196,2.407-.851,3.893-.851,3.893"/></g><g><path class="k" d="M316.887,166.302s-.812,1.31-.93,3.858"/><path class="l" d="M316.748,175.84c.255,.846,.582,1.746,.995,2.7,.872,2.015,1.966,3.611,3.078,4.86"/><path class="k" d="M322.916,185.386c1.89,1.504,3.421,2.043,3.421,2.043"/></g></g><circle class="j" cx="311.039" cy="180.485" r="18"/></g><circle class="g" cx="100.539" cy="340.985" r="2.5"/><circle class="g" cx="80.539" cy="352.985" r="2.5"/><path class="i" d="M342.021,160.618c123.213-117.754,477.925-368.305,857.728-374.461,423.509-6.864,801.286,250.446,927.502,384.008"/><line class="e" x1="181.039" y1="712.485" x2="181.039" y2="848.485"/><line class="e" x1="203.039" y1="701.485" x2="203.039" y2="837.485"/><line class="e" x1="226.039" y1="708.485" x2="226.039" y2="844.485"/><line class="e" x1="241.039" y1="676.485" x2="241.039" y2="812.485"/><line class="d" x1="124.489" y1="361.348" x2="105.904" y2="369.512"/></svg>