<?xml version="1.0" encoding="UTF-8"?><svg id="a" xmlns="http://www.w3.org/2000/svg" width="2110.225" height="1063.962" viewBox="0 0 2110.225 1063.962"><defs><style>.c,.d,.e,.f{fill:#fff;}.g{fill:#231f20;}.h{stroke-dasharray:0 32;}.h,.d,.i,.j,.k,.e,.f,.l{stroke-miterlimit:10;}.h,.d,.i,.k,.e{stroke:#231f20;}.h,.i,.j,.l{fill:none;}.h,.k,.e,.f{stroke-width:3px;}.i,.j,.l{stroke-width:2px;}.j,.l{stroke:#ef3e42;}.k{fill:#ed1c24;}.f{stroke:#010101;}.l{stroke-dasharray:0 0 5.764 5.764;}</style></defs><polygon class="e" points="37.654 773.815 10.06 772.478 33.049 693.579 76.969 625.81 91.067 660.963 56.6 706.08 37.654 773.815"/><polygon class="e" points="203.094 492.47 230.688 493.807 207.699 572.706 163.779 640.475 149.681 605.322 184.148 560.205 203.094 492.47"/><path class="e" d="M61.114,544.918c-16.044,9.619-23.05,27.425-15.648,39.77l26.803,44.707,58.1-34.833-26.803-44.707c-7.402-12.345-26.408-14.556-42.452-4.937Z"/><circle class="d" cx="70.923" cy="571.962" r="8.499"/><circle class="d" cx="90.923" cy="559.962" r="8.499"/><path class="e" d="M230.612,723.772l-92.224,55.292-66.299-102.252c-11.742-19.585-16.682-37.308,2.903-49.05l52.654-31.568c19.585-11.742,44.981-5.384,56.723,14.201l46.243,113.377Z"/><line class="e" x1="61.114" y1="544.918" x2="50.564" y2="527.321"/><circle class="k" cx="50.423" cy="527.462" r="5.499"/><g id="b"><g><path d="M229.954,445.604c1.783,.298,3.355,.388,4.654,1.03,2.705,1.336,4.545,3.63,5.391,6.602,3.635,12.76,3.645,25.494-.397,38.164-5.865,18.381-28.749,25.273-43.382,14.982-8.254-5.805-14.545-13.194-19.491-21.894-2.624-4.615-3.859-9.54-4.065-14.787-.186-4.744,3.008-7.314,7.551-6.112,.442,.117,1.032-.06,1.478-.264,6.522-2.992,9.958-8.601,12.541-14.91,.14-.342,.089-.79,.04-1.177-.4-3.108,.92-5.16,4.008-6.149,2.56-.82,5.067-.917,7.416,.245,.56,.277,1.236,.177,1.696-.247,2.476-2.283,4.621-2.37,8.585-.491,.466,.221,1.005,.19,1.457-.059,4.505-2.485,8.846-.791,11.424,4.233,.221,.431,.617,.756,1.095,.836Zm2.474,15.051c.544,4.177,.874,8.389,1.102,12.597,.074,1.375,.408,2.174,1.751,2.491,.323,.076,.728,.2,.902,.442,.491,.68,1.356,1.549,1.213,2.132-.318,1.292-1.442,1.094-2.493,.623-6.186-2.777-12.594-4.798-19.424-4.93-2.621-.051-5.264,.41-7.877,.777-1.168,.164-2.411,.405-2.548-1.039-.056-.593,1.114-1.314,1.753-1.95,.129-.128,.376-.145,.574-.194,3.61-.894,3.807-.927,3.162-4.695-1.089-6.353-2.257-12.707-3.776-18.968-1.002-4.132-4.083-5.353-7.855-3.796-1.479,.611-1.895,1.529-1.469,3.048,1.779,6.346,3.489,12.71,5.261,19.058,1.003,3.593,1.441,7.205,.542,10.877-.866,3.535-2.85,6.262-5.985,8.161-1.407,.852-2.528,.888-3.764-.433-5.25-5.609-10.726-11.026-14.463-17.856-.801-1.464-1.833-.82-2.414-.046-.552,.735-.843,1.839-.848,2.783-.032,5.76,1.97,10.901,4.98,15.722,4.964,7.952,10.957,14.886,19.212,19.607,.288,.165,.604,.283,1.293,.6-.088-1.195-.347-2.194-.163-3.103,.127-.623,.752-1.163,1.375-1.229,.445-.048,1.24,.326,1.461,.878,.316,.789,.38,1.748,.303,2.613-.169,1.912,.714,2.698,2.518,2.844,.835,.068,1.666,.189,2.559,.327,.979,.151,1.839-.666,1.749-1.652-.13-1.423-.248-2.734-.205-4.04,.003-.094,.019-.187,.045-.279,.348-1.231,2.198-1.404,2.743-.246,.039,.083,.068,.168,.084,.255,.25,1.334,.32,2.702,.398,4.167,.049,.919,.896,1.589,1.801,1.424l1.321-.241c.766-.14,1.303-.839,1.249-1.616-.09-1.288-.175-2.535-.287-3.779-.098-1.092-.1-2.199,1.274-2.338,1.501-.151,1.713,1.025,1.802,2.177,.056,.722,.109,1.444,.164,2.211,.077,1.062,1.198,1.735,2.165,1.289,3.056-1.408,5.649-3.255,7.812-5.731,4.703-5.384,6.762-11.874,7.523-18.821,1.008-9.194,.989-18.337-2.117-27.219-.811-2.318-2.429-3.92-4.275-4.394-1.056-.271-2.026,.709-1.825,1.78,.618,3.281,1.275,6.482,1.696,9.715Zm-6.292-13.545c-.462-1.236-1.244-2.425-2.128-3.413-1.151-1.287-2.7-1.485-4.277-.694-1.037,.52-1.443,1.23-.954,2.479,3.126,7.97,4.495,16.327,5.236,24.802,.111,1.272,.45,1.95,1.794,2.184,.865,.15,1.715,.384,2.597,.643,1.006,.295,2.007-.5,1.951-1.548-.453-8.429-1.288-16.615-4.22-24.454Zm-7.009,24.03c.926,.075,1.704-.688,1.65-1.615-.067-1.153-.136-2.292-.283-3.422-.94-7.217-2.325-14.339-5.2-21.068-.429-1.004-1.44-2.037-2.432-2.438-.833-.337-2.294-.088-2.985,.49-.562,.47-.767,1.936-.494,2.747,2.632,7.841,3.879,15.924,4.494,24.132,.015,.199,.078,.394,.154,.76l5.096,.413Zm-25.013-14.882c-2.608,4.031-6.13,7.089-10.472,9.534-.797,.449-1.003,1.508-.466,2.248l2.755,3.798c.442,.61,1.274,.827,1.934,.463,4.553-2.509,7.418-6.294,9.44-10.813,.29-.649,.369-1.755,.192-2.443-.203-.791-.413-1.579-.627-2.367-.347-1.279-2.037-1.532-2.757-.42Zm3.187,11.412c-.613,.837-1.221,1.678-1.813,2.531-.235,.339-.412,.901-.303,1.267,.597,1.994,1.227,3.978,1.866,5.972,.438,1.367,2.394,1.449,2.878,.098,.949-2.653,.828-6.317,.096-9.333-.307-1.262-1.956-1.582-2.724-.535Zm-4.271,7.31c-.303-.97-1.452-1.38-2.3-.82l-.359,.237c-.788,.52-.921,1.623-.278,2.315l.034,.036,2.927-1.697-.022-.072Z"/><path class="c" d="M230.398,449.127c.704,3.921,1.533,7.703,2.031,11.527,.544,4.177,.874,8.389,1.102,12.597,.074,1.375,.408,2.174,1.751,2.491,.323,.076,.728,.2,.902,.442,.491,.68,1.356,1.549,1.213,2.132-.318,1.292-1.442,1.094-2.493,.623-6.186-2.777-12.594-4.798-19.424-4.93-2.621-.051-5.264,.41-7.877,.777-1.168,.164-2.411,.405-2.548-1.039-.056-.593,1.114-1.314,1.753-1.95,.129-.128,.376-.145,.574-.194,3.61-.894,3.807-.927,3.162-4.695-1.089-6.353-2.257-12.707-3.776-18.968-1.002-4.132-4.083-5.353-7.855-3.796-1.479,.611-1.895,1.529-1.469,3.048,1.779,6.346,3.489,12.71,5.261,19.058,1.003,3.593,1.441,7.205,.542,10.877-.866,3.535-2.85,6.262-5.985,8.161-1.407,.852-2.528,.888-3.764-.433-5.25-5.609-10.726-11.026-14.463-17.856-.801-1.464-1.833-.82-2.414-.046-.552,.735-.843,1.839-.848,2.783-.032,5.76,1.97,10.901,4.98,15.722,4.964,7.952,10.957,14.886,19.212,19.607,.288,.165,.604,.283,1.293,.6-.088-1.195-.347-2.194-.163-3.103,.127-.623,.784-1.367,1.375-1.577,.323-.115,1.24,.673,1.461,1.226,.316,.789,.38,1.748,.303,2.613-.169,1.912,.714,2.698,2.518,2.844,1.398,.114,2.784,.378,4.474,.617-.162-2.217-.434-4.105-.371-5.982,.024-.723,.809-1.421,1.247-2.13,.565,.615,1.495,1.162,1.625,1.859,.346,1.846,.347,3.757,.504,5.9l4.364-.797c-.131-1.785-.233-3.469-.384-5.149-.098-1.092-.1-2.199,1.274-2.338,1.501-.151,1.713,1.025,1.802,2.177,.104,1.349,.199,2.698,.319,4.339,3.946-1.491,7.2-3.568,9.823-6.57,4.703-5.384,6.762-11.874,7.523-18.821,1.008-9.194,.989-18.337-2.117-27.219-1.117-3.194-3.768-5.028-6.434-4.426Z"/><path class="c" d="M230.464,473.709c-.435-9.186-1.148-18.097-4.328-26.6-.462-1.236-1.244-2.425-2.128-3.413-1.151-1.287-2.7-1.485-4.277-.694-1.037,.52-1.443,1.23-.954,2.479,3.126,7.97,4.495,16.327,5.236,24.802,.111,1.272,.45,1.95,1.794,2.184,1.513,.263,2.981,.782,4.656,1.242Z"/><path class="c" d="M214.031,470.726l6.856,.556c-.129-1.756-.172-3.48-.394-5.18-.94-7.217-2.325-14.339-5.2-21.068-.429-1.004-1.44-2.037-2.432-2.438-.833-.337-2.294-.088-2.985,.49-.562,.47-.767,1.936-.494,2.747,2.632,7.841,3.879,15.924,4.494,24.132,.015,.199,.078,.394,.154,.76Z"/><path class="c" d="M195.885,453.073c-2.926,6.175-7.589,10.381-13.751,13.527l4.567,6.297c5.445-2.582,8.663-6.836,10.859-11.99,.168-.395,.174-.934,.067-1.359-.546-2.167-1.154-4.318-1.741-6.475Z"/><path class="c" d="M199.034,465.311c-1.185,1.621-2.398,3.232-3.545,4.888-.235,.339-.412,.901-.303,1.267,.885,2.956,1.844,5.89,2.793,8.87,3.593-2.557,3.054-10.799,1.055-15.025Z"/><path class="c" d="M195.065,481.493c-.854-2.733-1.708-5.466-2.641-8.452l-3.559,2.349,5.85,6.303,.35-.199Z"/></g></g><line class="e" x1="95.96" y1="548.061" x2="80.759" y2="550.184"/><g><polygon class="f" points="38.895 778.736 7.575 777.228 2.297 788.618 42.515 790.582 38.895 778.736"/><g><rect class="f" x="6.806" y="789.223" width="7.383" height="13.099" transform="translate(-17.571 1591.119) rotate(-177.223)"/><rect class="f" x="19.068" y="789.759" width="7.383" height="13.099" transform="translate(6.912 1592.783) rotate(-177.223)"/><rect class="f" x="31.506" y="790.303" width="7.383" height="13.099" transform="translate(31.749 1594.474) rotate(-177.223)"/></g></g><polygon class="e" points="181.175 885.28 161.528 881.237 157.697 824.174 138.583 779.542 182.577 753.165 191.205 813.504 181.175 885.28"/><path class="e" d="M196.762,910.196l-41.844-8.691,2.671-12.861c.448-2.155,2.558-3.54,4.713-3.092l23.893,4.962c7.759,1.611,12.742,9.207,11.131,16.966l-.564,2.715Z"/><polygon class="e" points="238.28 851.043 218.633 847 214.802 789.937 187.472 750.231 230.546 724.406 248.31 779.267 238.28 851.043"/><path class="e" d="M253.867,875.96l-41.844-8.691,2.671-12.861c.448-2.155,2.558-3.54,4.713-3.092l23.893,4.962c7.759,1.611,12.742,9.207,11.131,16.966l-.564,2.715Z"/><line class="e" x1="56.875" y1="572.659" x2="65.91" y2="560.252"/><g><g><g><path class="j" d="M279.058,390.174s1.511,.305,3.449,1.962"/><path class="l" d="M286.108,396.6c.442,.765,.875,1.619,1.288,2.573,.872,2.015,1.287,3.905,1.438,5.57"/><path class="j" d="M288.847,407.63c-.196,2.407-.851,3.893-.851,3.893"/></g><g><path class="j" d="M298.772,381.78s-.812,1.31-.93,3.858"/><path class="l" d="M298.633,391.318c.255,.846,.582,1.746,.995,2.7,.872,2.015,1.966,3.611,3.078,4.86"/><path class="j" d="M304.801,400.864c1.89,1.504,3.421,2.043,3.421,2.043"/></g></g><circle class="i" cx="292.923" cy="395.962" r="18"/></g><circle class="g" cx="92.423" cy="556.462" r="2.5"/><circle class="g" cx="72.423" cy="568.462" r="2.5"/><path class="h" d="M1181.633,1.635c423.509-6.864,801.286,250.446,927.502,384.008"/><line class="f" x1="172.923" y1="927.962" x2="172.923" y2="1063.962"/><line class="f" x1="194.923" y1="916.962" x2="194.923" y2="1052.962"/><line class="f" x1="217.923" y1="923.962" x2="217.923" y2="1059.962"/><line class="f" x1="232.923" y1="891.962" x2="232.923" y2="1027.962"/><line class="e" x1="116.373" y1="576.826" x2="97.789" y2="584.99"/><line class="f" x1="347.303" y1="354.569" x2="323.531" y2="376.068"/><line class="f" x1="396.543" y1="313.701" x2="372.771" y2="332.855"/><line class="f" x1="447.455" y1="275.394" x2="422.249" y2="293.813"/><line class="f" x1="500.174" y1="238.904" x2="474.967" y2="255.849"/><line class="f" x1="555.027" y1="203.992" x2="528.347" y2="220.937"/></svg>