<?xml version="1.0" encoding="utf-8"?>
<!-- Generator: Adobe Illustrator 26.2.1, SVG Export Plug-In . SVG Version: 6.00 Build 0)  -->
<svg version="1.1" id="Layer_1" xmlns="http://www.w3.org/2000/svg" xmlns:xlink="http://www.w3.org/1999/xlink" x="0px" y="0px"
	 viewBox="0 0 238.1 153.48" style="enable-background:new 0 0 238.1 153.48;" xml:space="preserve">
<g>
	<path d="M124.09,0L67.4,153.48H56.69L0,0h11.34l41.99,113.59c1.19,3.29,2.31,6.49,3.36,9.61c1.05,3.12,2.03,6.11,2.94,8.98
		c0.91,2.87,1.71,5.63,2.41,8.29c0.7-2.66,1.49-5.37,2.36-8.14c0.87-2.76,1.84-5.7,2.89-8.82c1.05-3.11,2.2-6.46,3.46-10.03
		L112.64,0H124.09z"/>
	<path d="M183.4,0c18.27,0,31.95,3.5,41.05,10.5c9.1,7,13.65,17.88,13.65,32.65c0,7.56-1.21,14.26-3.62,20.1
		c-2.41,5.84-6.04,10.76-10.87,14.75s-10.87,7-18.11,9.03c-7.24,2.03-15.69,3.04-25.35,3.04h-23.62v63.41h-10.81V0H183.4z
		 M182.25,9.55h-25.72v70.97h22.57c9.94,0,18.48-1.14,25.62-3.41c7.14-2.27,12.63-6.11,16.48-11.5c3.85-5.39,5.77-12.74,5.77-22.05
		c0-11.83-3.64-20.45-10.92-25.88C208.77,12.27,197.5,9.55,182.25,9.55z"/>
</g>
</svg>
